<?xml version="1.0" encoding="utf-8"?>
<svg width="246px" height="245px" viewBox="0 0 246 245" version="1.1" xmlns:xlink="http://www.w3.org/1999/xlink" xmlns="http://www.w3.org/2000/svg">
  <desc>Created with Lunacy</desc>
  <defs>
    <radialGradient gradientUnits="objectBoundingBox" cx="31.94444%" cy="29.44444%" fx="31.94444%" fy="29.44444%" r="43.33331%" gradientTransform="translate(0.3194444,0.2944444),scale(1,0),translate(-0.3194444,-0.2944444)" id="gradient_1">
      <stop offset="0%" stop-color="#282F8D" />
      <stop offset="100%" stop-color="#1F104E" />
    </radialGradient>
    <radialGradient gradientUnits="objectBoundingBox" cx="56.26091%" cy="57.99998%" fx="56.26091%" fy="57.99998%" r="66.52596%" gradientTransform="translate(0.5626091,0.5799999),rotate(53.35363),scale(1,1.072908),translate(-0.5626091,-0.5799999)" id="gradient_2">
      <stop offset="0%" stop-color="#F1F1E2" />
      <stop offset="54.30684%" stop-color="#FFFF1B" />
      <stop offset="100%" stop-color="#F7C826" />
    </radialGradient>
  </defs>
  <g id="Group" transform="translate(7.5 7.5)">
    <path d="M0 115C0 51.4873 51.4873 0 115 0C178.513 0 230 51.4873 230 115C230 178.513 178.513 230 115 230C51.4873 230 0 178.513 0 115Z" transform="translate(0.0001220703 0)" id="Ellipse" fill="url(#gradient_1)" stroke="#E8E5E4" stroke-width="15" />
    <path d="M126.334 32.6059L139.297 69.8985Q139.446 70.3293 139.628 70.7475Q139.811 71.1658 140.024 71.569Q140.237 71.9722 140.48 72.358Q140.724 72.7439 140.995 73.1102Q141.267 73.4764 141.566 73.821Q141.865 74.1656 142.189 74.4865Q142.513 74.8074 142.861 75.1027Q143.209 75.3981 143.578 75.6662Q143.947 75.9343 144.335 76.1736Q144.723 76.413 145.129 76.6221Q145.534 76.8313 145.954 77.009Q146.374 77.1868 146.807 77.3322Q147.239 77.4776 147.681 77.5897Q148.123 77.7018 148.573 77.78Q149.022 77.8582 149.476 77.9021Q149.93 77.946 150.386 77.9553L189.859 78.7597Q190.323 78.7692 190.784 78.8144Q191.246 78.8596 191.703 78.9403Q192.159 79.021 192.609 79.1368Q193.058 79.2525 193.496 79.4025Q193.935 79.5526 194.361 79.736Q194.787 79.9195 195.198 80.1353Q195.608 80.3511 196.001 80.598Q196.394 80.8448 196.766 81.1212Q197.138 81.3976 197.488 81.702Q197.838 82.0063 198.164 82.3368Q198.489 82.6672 198.788 83.0218Q199.087 83.3764 199.358 83.753Q199.629 84.1295 199.869 84.5259Q200.11 84.9223 200.32 85.3361Q200.529 85.7498 200.706 86.1786Q200.883 86.6073 201.026 87.0483Q201.17 87.4894 201.279 87.9403Q201.387 88.3911 201.461 88.849Q201.535 89.3069 201.573 89.7691Q201.611 90.2313 201.613 90.6951Q201.616 91.1589 201.582 91.6215Q201.549 92.0841 201.48 92.5427Q201.411 93.0013 201.307 93.4532Q201.202 93.9052 201.064 94.3477Q200.925 94.7902 200.752 95.2207Q200.58 95.6512 200.374 96.0671Q200.169 96.483 199.932 96.8818Q199.696 97.2806 199.429 97.6599Q199.162 98.0393 198.867 98.3969Q198.571 98.7545 198.249 99.0882Q197.927 99.422 197.58 99.7299Q197.233 100.038 196.864 100.318L165.402 124.17Q165.039 124.446 164.697 124.748Q164.356 125.051 164.038 125.378Q163.721 125.706 163.429 126.056Q163.137 126.407 162.873 126.779Q162.608 127.15 162.373 127.541Q162.138 127.932 161.933 128.339Q161.728 128.747 161.554 129.169Q161.381 129.59 161.24 130.024Q161.099 130.458 160.991 130.901Q160.883 131.345 160.81 131.795Q160.736 132.245 160.697 132.699Q160.658 133.154 160.653 133.61Q160.648 134.066 160.678 134.521Q160.708 134.976 160.773 135.428Q160.837 135.879 160.936 136.325Q161.034 136.77 161.166 137.207L172.599 174.996Q172.734 175.44 172.833 175.893Q172.933 176.346 172.997 176.805Q173.062 177.265 173.09 177.728Q173.119 178.191 173.112 178.654Q173.105 179.118 173.062 179.58Q173.019 180.042 172.941 180.499Q172.862 180.956 172.749 181.406Q172.636 181.855 172.488 182.295Q172.34 182.735 172.159 183.161Q171.977 183.588 171.764 184Q171.55 184.412 171.305 184.805Q171.06 185.199 170.786 185.573Q170.511 185.947 170.209 186.298Q169.906 186.65 169.577 186.977Q169.249 187.304 168.895 187.605Q168.542 187.906 168.167 188.178Q167.792 188.451 167.397 188.694Q167.002 188.937 166.589 189.148Q166.176 189.36 165.749 189.539Q165.321 189.718 164.88 189.864Q164.44 190.009 163.99 190.12Q163.539 190.232 163.082 190.308Q162.624 190.384 162.162 190.424Q161.7 190.465 161.237 190.469Q160.773 190.474 160.31 190.443Q159.847 190.412 159.388 190.345Q158.929 190.278 158.477 190.177Q158.025 190.075 157.581 189.938Q157.138 189.801 156.707 189.631Q156.275 189.461 155.858 189.258Q155.441 189.054 155.041 188.82Q154.641 188.585 154.261 188.32L121.854 165.769Q121.479 165.509 121.086 165.277Q120.693 165.046 120.283 164.845Q119.874 164.644 119.45 164.475Q119.027 164.306 118.591 164.169Q118.156 164.033 117.712 163.93Q117.268 163.827 116.817 163.758Q116.366 163.688 115.911 163.654Q115.456 163.619 115 163.619Q114.544 163.619 114.089 163.654Q113.634 163.688 113.183 163.758Q112.732 163.827 112.288 163.93Q111.844 164.033 111.409 164.169Q110.973 164.306 110.55 164.475Q110.126 164.644 109.717 164.845Q109.307 165.046 108.914 165.277Q108.521 165.509 108.146 165.769L75.7392 188.32Q75.3585 188.585 74.9585 188.82Q74.5585 189.054 74.1416 189.258Q73.7247 189.461 73.2933 189.631Q72.8619 189.801 72.4187 189.938Q71.9755 190.075 71.523 190.177Q71.0706 190.278 70.6116 190.345Q70.1526 190.412 69.6899 190.443Q69.2271 190.474 68.7634 190.469Q68.2996 190.465 67.8376 190.424Q67.3756 190.384 66.9181 190.308Q66.4606 190.232 66.0103 190.12Q65.56 190.009 65.1197 189.864Q64.6793 189.718 64.2515 189.539Q63.8237 189.36 63.411 189.148Q62.9983 188.937 62.6031 188.694Q62.208 188.451 61.8328 188.178Q61.4576 187.906 61.1045 187.605Q60.7515 187.304 60.4227 186.977Q60.0939 186.65 59.7914 186.298Q59.4888 185.947 59.2143 185.573Q58.9398 185.199 58.6949 184.805Q58.4501 184.412 58.2364 184Q58.0227 183.588 57.8414 183.161Q57.6601 182.735 57.5123 182.295Q57.3645 181.855 57.251 181.406Q57.1376 180.956 57.0592 180.499Q56.9808 180.042 56.938 179.58Q56.8951 179.118 56.888 178.654Q56.8809 178.191 56.9097 177.728Q56.9384 177.265 57.0028 176.805Q57.0672 176.346 57.1668 175.893Q57.2664 175.44 57.4007 174.996L68.8335 137.207Q68.9656 136.77 69.0642 136.325Q69.1628 135.879 69.2272 135.428Q69.2917 134.976 69.3217 134.521Q69.3517 134.066 69.347 133.61Q69.3424 133.154 69.3031 132.699Q69.2639 132.245 69.1902 131.795Q69.1165 131.345 69.0089 130.901Q68.9013 130.458 68.7604 130.024Q68.6194 129.59 68.4459 129.168Q68.2725 128.747 68.0675 128.339Q67.8624 127.932 67.6271 127.541Q67.3917 127.15 67.1274 126.778Q66.863 126.407 66.5713 126.056Q66.2795 125.706 65.9619 125.378Q65.6443 125.051 65.3028 124.748Q64.9613 124.446 64.5978 124.17L33.1362 100.318Q32.7666 100.038 32.4198 99.7298Q32.0729 99.4219 31.7509 99.0882Q31.4288 98.7544 31.1335 98.3968Q30.8382 98.0392 30.5713 97.6599Q30.3045 97.2806 30.0677 96.8818Q29.831 96.483 29.6257 96.0671Q29.4204 95.6512 29.2479 95.2207Q29.0753 94.7902 28.9365 94.3477Q28.7977 93.9051 28.6934 93.4532Q28.5892 93.0013 28.5201 92.5427Q28.4511 92.0841 28.4176 91.6215Q28.3842 91.1589 28.3865 90.6951Q28.3889 90.2313 28.4271 89.7691Q28.4652 89.3069 28.5389 88.849Q28.6126 88.3911 28.7215 87.9403Q28.8303 87.4894 28.9737 87.0483Q29.117 86.6072 29.2939 86.1785Q29.4709 85.7498 29.6804 85.336Q29.8899 84.9223 30.1307 84.5259Q30.3715 84.1295 30.6422 83.7529Q30.9129 83.3763 31.2118 83.0218Q31.5108 82.6672 31.8362 82.3367Q32.1617 82.0063 32.5116 81.7019Q32.8616 81.3976 33.234 81.1212Q33.6064 80.8448 33.9991 80.5979Q34.3917 80.3511 34.8022 80.1353Q35.2128 79.9195 35.6387 79.736Q36.0647 79.5525 36.5035 79.4025Q36.9424 79.2524 37.3915 79.1367Q37.8406 79.021 38.2973 78.9403Q38.7541 78.8596 39.2156 78.8144Q39.6772 78.7692 40.1409 78.7597L79.614 77.9553Q80.07 77.946 80.524 77.9021Q80.9781 77.8582 81.4275 77.78Q81.8768 77.7018 82.319 77.5897Q82.7611 77.4775 83.1935 77.3322Q83.6258 77.1868 84.0459 77.009Q84.466 76.8312 84.8713 76.6221Q85.2767 76.4129 85.665 76.1736Q86.0533 75.9343 86.4223 75.6662Q86.7914 75.3981 87.139 75.1027Q87.4866 74.8074 87.8108 74.4865Q88.1349 74.1656 88.4338 73.821Q88.7327 73.4764 89.0046 73.1102Q89.2764 72.7439 89.5197 72.358Q89.7629 71.9722 89.9762 71.569Q90.1895 71.1658 90.3715 70.7475Q90.5536 70.3293 90.7033 69.8984L103.666 32.6059Q103.818 32.1679 104.004 31.7428Q104.19 31.3178 104.408 30.9084Q104.626 30.499 104.874 30.1076Q105.123 29.7162 105.402 29.3452Q105.68 28.9742 105.986 28.6258Q106.292 28.2774 106.624 27.9536Q106.956 27.6299 107.312 27.3327Q107.668 27.0356 108.046 26.7668Q108.424 26.498 108.822 26.2593Q109.22 26.0205 109.634 25.8131Q110.049 25.6057 110.479 25.4309Q110.908 25.2562 111.35 25.1151Q111.792 24.974 112.243 24.8675Q112.695 24.7609 113.153 24.6896Q113.611 24.6182 114.074 24.5824Q114.536 24.5466 115 24.5466Q115.464 24.5466 115.926 24.5824Q116.389 24.6182 116.847 24.6896Q117.305 24.7609 117.757 24.8675Q118.208 24.974 118.65 25.1151Q119.092 25.2562 119.521 25.4309Q119.951 25.6057 120.366 25.8131Q120.78 26.0205 121.178 26.2593Q121.576 26.498 121.954 26.7668Q122.332 27.0356 122.688 27.3327Q123.044 27.6299 123.376 27.9536Q123.708 28.2774 124.014 28.6258Q124.32 28.9742 124.598 29.3452Q124.877 29.7162 125.126 30.1076Q125.374 30.499 125.592 30.9084Q125.81 31.3178 125.996 31.7428Q126.182 32.1679 126.334 32.6059Z" id="Star" fill="url(#gradient_2)" stroke="#808080" stroke-width="0.5" />
  </g>
</svg>